<mxfile host="draw.home.me" modified="2025-05-26T17:08:14.314Z" agent="Mozilla/5.0 (Windows NT 10.0; Win64; x64) AppleWebKit/537.36 (KHTML, like Gecko) Chrome/131.0.0.0 Safari/537.36 Edg/131.0.0.0" etag="ojro3Rd1gNr-VwyJ97Ed" version="24.6.3" type="device">
  <diagram name="第 1 页" id="hYO-8NZHp8vvQbQMahdp">
    <mxGraphModel dx="2019" dy="1111" grid="1" gridSize="10" guides="1" tooltips="1" connect="1" arrows="1" fold="1" page="1" pageScale="1" pageWidth="827" pageHeight="1169" math="0" shadow="0">
      <root>
        <mxCell id="0" />
        <mxCell id="1" parent="0" />
        <mxCell id="rr5zABHRZjq87CbZNu1t-13" value="" style="endArrow=none;dashed=1;html=1;rounded=0;strokeWidth=3;curved=0;strokeColor=#00FFFF;" edge="1" parent="1">
          <mxGeometry width="50" height="50" relative="1" as="geometry">
            <mxPoint x="120" y="1040" as="sourcePoint" />
            <mxPoint x="200" y="960" as="targetPoint" />
          </mxGeometry>
        </mxCell>
        <mxCell id="rr5zABHRZjq87CbZNu1t-14" value="" style="endArrow=none;dashed=1;html=1;rounded=0;strokeWidth=3;curved=0;strokeColor=#FFFF00;" edge="1" parent="1">
          <mxGeometry width="50" height="50" relative="1" as="geometry">
            <mxPoint x="160" y="1040" as="sourcePoint" />
            <mxPoint x="240" y="960" as="targetPoint" />
          </mxGeometry>
        </mxCell>
        <mxCell id="rr5zABHRZjq87CbZNu1t-15" value="" style="endArrow=none;dashed=1;html=1;rounded=0;strokeWidth=3;curved=0;strokeColor=#FF00FF;" edge="1" parent="1">
          <mxGeometry width="50" height="50" relative="1" as="geometry">
            <mxPoint x="200" y="1040" as="sourcePoint" />
            <mxPoint x="280" y="960" as="targetPoint" />
          </mxGeometry>
        </mxCell>
        <mxCell id="rr5zABHRZjq87CbZNu1t-16" value="" style="endArrow=none;dashed=1;html=1;rounded=0;strokeWidth=3;curved=0;strokeColor=#00FFFF;" edge="1" parent="1">
          <mxGeometry width="50" height="50" relative="1" as="geometry">
            <mxPoint x="240" y="1040" as="sourcePoint" />
            <mxPoint x="320" y="960" as="targetPoint" />
          </mxGeometry>
        </mxCell>
        <mxCell id="rr5zABHRZjq87CbZNu1t-17" value="" style="endArrow=none;dashed=1;html=1;rounded=0;strokeWidth=3;curved=0;strokeColor=#FFFF00;" edge="1" parent="1">
          <mxGeometry width="50" height="50" relative="1" as="geometry">
            <mxPoint x="280" y="1040" as="sourcePoint" />
            <mxPoint x="360" y="960" as="targetPoint" />
          </mxGeometry>
        </mxCell>
        <mxCell id="rr5zABHRZjq87CbZNu1t-18" value="" style="endArrow=none;dashed=1;html=1;rounded=0;strokeWidth=3;curved=0;strokeColor=#FF00FF;" edge="1" parent="1">
          <mxGeometry width="50" height="50" relative="1" as="geometry">
            <mxPoint x="320" y="1040" as="sourcePoint" />
            <mxPoint x="400" y="960" as="targetPoint" />
          </mxGeometry>
        </mxCell>
        <mxCell id="rr5zABHRZjq87CbZNu1t-19" value="" style="endArrow=none;dashed=1;html=1;rounded=0;strokeWidth=3;curved=0;strokeColor=#00FFFF;" edge="1" parent="1">
          <mxGeometry width="50" height="50" relative="1" as="geometry">
            <mxPoint x="360" y="1040" as="sourcePoint" />
            <mxPoint x="440" y="960" as="targetPoint" />
          </mxGeometry>
        </mxCell>
        <mxCell id="rr5zABHRZjq87CbZNu1t-20" value="" style="endArrow=none;dashed=1;html=1;rounded=0;strokeWidth=3;curved=0;strokeColor=#FFFF00;" edge="1" parent="1">
          <mxGeometry width="50" height="50" relative="1" as="geometry">
            <mxPoint x="400" y="1040" as="sourcePoint" />
            <mxPoint x="480" y="960" as="targetPoint" />
          </mxGeometry>
        </mxCell>
        <mxCell id="rr5zABHRZjq87CbZNu1t-21" value="" style="endArrow=none;dashed=1;html=1;rounded=0;strokeWidth=3;curved=0;strokeColor=#FF00FF;" edge="1" parent="1">
          <mxGeometry width="50" height="50" relative="1" as="geometry">
            <mxPoint x="440" y="1040" as="sourcePoint" />
            <mxPoint x="520" y="960" as="targetPoint" />
          </mxGeometry>
        </mxCell>
        <mxCell id="rr5zABHRZjq87CbZNu1t-22" value="" style="endArrow=none;dashed=1;html=1;rounded=0;strokeWidth=3;curved=0;strokeColor=#00FFFF;" edge="1" parent="1">
          <mxGeometry width="50" height="50" relative="1" as="geometry">
            <mxPoint x="480" y="1040" as="sourcePoint" />
            <mxPoint x="560" y="960" as="targetPoint" />
          </mxGeometry>
        </mxCell>
        <mxCell id="rr5zABHRZjq87CbZNu1t-23" value="" style="endArrow=none;dashed=1;html=1;rounded=0;strokeWidth=3;curved=0;strokeColor=#FFFF00;" edge="1" parent="1">
          <mxGeometry width="50" height="50" relative="1" as="geometry">
            <mxPoint x="520" y="1040" as="sourcePoint" />
            <mxPoint x="600" y="960" as="targetPoint" />
          </mxGeometry>
        </mxCell>
        <mxCell id="rr5zABHRZjq87CbZNu1t-24" value="" style="endArrow=none;dashed=1;html=1;rounded=0;strokeWidth=3;curved=0;strokeColor=#FF00FF;" edge="1" parent="1">
          <mxGeometry width="50" height="50" relative="1" as="geometry">
            <mxPoint x="560" y="1040" as="sourcePoint" />
            <mxPoint x="640" y="960" as="targetPoint" />
          </mxGeometry>
        </mxCell>
        <mxCell id="9GDjjJapkxw-lqmiiiHe-1" value="&lt;font color=&quot;#ffffff&quot; style=&quot;font-size: 48px;&quot;&gt;&lt;b style=&quot;font-size: 48px;&quot;&gt;C&lt;/b&gt;&lt;/font&gt;" style="ellipse;whiteSpace=wrap;html=1;aspect=fixed;fillColor=#00FFFF;strokeColor=none;fontSize=48;" parent="1" vertex="1">
          <mxGeometry x="200" y="40" width="80" height="80" as="geometry" />
        </mxCell>
        <mxCell id="9GDjjJapkxw-lqmiiiHe-2" value="&lt;font color=&quot;#ffffff&quot; style=&quot;font-size: 48px;&quot;&gt;&lt;b style=&quot;font-size: 48px;&quot;&gt;M&lt;/b&gt;&lt;/font&gt;" style="ellipse;whiteSpace=wrap;html=1;aspect=fixed;fillColor=#FF00FF;strokeColor=none;fontSize=48;" parent="1" vertex="1">
          <mxGeometry x="200" y="160" width="80" height="80" as="geometry" />
        </mxCell>
        <mxCell id="9GDjjJapkxw-lqmiiiHe-3" value="&lt;font color=&quot;#ffffff&quot; style=&quot;font-size: 48px;&quot;&gt;&lt;b style=&quot;font-size: 48px;&quot;&gt;Y&lt;/b&gt;&lt;/font&gt;" style="ellipse;whiteSpace=wrap;html=1;aspect=fixed;fillColor=#FFFF00;strokeColor=none;fontSize=48;" parent="1" vertex="1">
          <mxGeometry x="200" y="280" width="80" height="80" as="geometry" />
        </mxCell>
        <mxCell id="9GDjjJapkxw-lqmiiiHe-4" value="&lt;font color=&quot;#ffffff&quot; style=&quot;font-size: 48px;&quot;&gt;&lt;b style=&quot;font-size: 48px;&quot;&gt;K&lt;/b&gt;&lt;/font&gt;" style="ellipse;whiteSpace=wrap;html=1;aspect=fixed;fillColor=#000000;strokeColor=none;fontSize=48;" parent="1" vertex="1">
          <mxGeometry x="200" y="400" width="80" height="80" as="geometry" />
        </mxCell>
        <mxCell id="9GDjjJapkxw-lqmiiiHe-5" value="C" style="whiteSpace=wrap;html=1;aspect=fixed;strokeColor=none;fillColor=none;fontStyle=1;fontSize=73;fontColor=#00FFFF;" parent="1" vertex="1">
          <mxGeometry x="360" y="40" width="80" height="80" as="geometry" />
        </mxCell>
        <mxCell id="9GDjjJapkxw-lqmiiiHe-6" value="M" style="whiteSpace=wrap;html=1;aspect=fixed;strokeColor=none;fillColor=none;fontStyle=1;fontSize=72;fontColor=#FF00FF;" parent="1" vertex="1">
          <mxGeometry x="360" y="160" width="80" height="80" as="geometry" />
        </mxCell>
        <mxCell id="9GDjjJapkxw-lqmiiiHe-7" value="Y" style="whiteSpace=wrap;html=1;aspect=fixed;strokeColor=none;fillColor=none;fontStyle=1;fontSize=72;fontColor=#FFFF00;" parent="1" vertex="1">
          <mxGeometry x="360" y="280" width="80" height="80" as="geometry" />
        </mxCell>
        <mxCell id="9GDjjJapkxw-lqmiiiHe-8" value="K" style="whiteSpace=wrap;html=1;aspect=fixed;strokeColor=none;fillColor=none;fontStyle=1;fontSize=72;fontColor=#000000;" parent="1" vertex="1">
          <mxGeometry x="360" y="400" width="80" height="80" as="geometry" />
        </mxCell>
        <mxCell id="9GDjjJapkxw-lqmiiiHe-9" value="&lt;font style=&quot;font-size: 24px;&quot;&gt;&lt;span style=&quot;font-size: 24px;&quot;&gt;cyan&lt;br style=&quot;font-size: 24px;&quot;&gt;#00FFFF&lt;/span&gt;&lt;/font&gt;" style="rounded=0;whiteSpace=wrap;html=1;strokeColor=none;fillColor=none;fontSize=24;fontStyle=1;fontColor=default;" parent="1" vertex="1">
          <mxGeometry x="480" y="40" width="160" height="80" as="geometry" />
        </mxCell>
        <mxCell id="9GDjjJapkxw-lqmiiiHe-10" value="&lt;font style=&quot;font-size: 24px;&quot;&gt;&lt;b style=&quot;font-size: 24px;&quot;&gt;magenta&lt;/b&gt;&lt;/font&gt;&lt;div style=&quot;font-size: 24px;&quot;&gt;&lt;span style=&quot;font-size: 24px; font-weight: 700;&quot;&gt;#FF&lt;/span&gt;&lt;span style=&quot;font-weight: 700; background-color: initial;&quot;&gt;00&lt;/span&gt;&lt;span style=&quot;font-weight: 700; background-color: initial;&quot;&gt;FF&lt;/span&gt;&lt;/div&gt;" style="rounded=0;whiteSpace=wrap;html=1;strokeColor=none;fillColor=none;fontSize=24;fontColor=default;" parent="1" vertex="1">
          <mxGeometry x="480" y="160" width="160" height="80" as="geometry" />
        </mxCell>
        <mxCell id="9GDjjJapkxw-lqmiiiHe-11" value="&lt;font style=&quot;font-size: 24px;&quot;&gt;&lt;b style=&quot;font-size: 24px;&quot;&gt;yellow&lt;/b&gt;&lt;/font&gt;&lt;div style=&quot;font-size: 24px;&quot;&gt;&lt;span style=&quot;font-size: 24px; font-weight: 700;&quot;&gt;#FFFF&lt;/span&gt;&lt;font style=&quot;font-size: 24px;&quot;&gt;&lt;b style=&quot;font-size: 24px;&quot;&gt;&lt;/b&gt;&lt;/font&gt;&lt;span style=&quot;font-weight: 700; background-color: initial;&quot;&gt;00&lt;/span&gt;&lt;/div&gt;" style="rounded=0;whiteSpace=wrap;html=1;strokeColor=none;fillColor=none;fontSize=24;fontColor=default;" parent="1" vertex="1">
          <mxGeometry x="480" y="280" width="160" height="80" as="geometry" />
        </mxCell>
        <mxCell id="9GDjjJapkxw-lqmiiiHe-12" value="&lt;font style=&quot;font-size: 24px;&quot;&gt;&lt;b style=&quot;font-size: 24px;&quot;&gt;black&lt;/b&gt;&lt;/font&gt;&lt;div style=&quot;font-size: 24px;&quot;&gt;&lt;span style=&quot;font-size: 24px; font-weight: 700; background-color: initial;&quot;&gt;#000000&lt;/span&gt;&lt;/div&gt;" style="rounded=0;whiteSpace=wrap;html=1;strokeColor=none;fillColor=none;fontSize=24;fontColor=default;" parent="1" vertex="1">
          <mxGeometry x="480" y="400" width="160" height="80" as="geometry" />
        </mxCell>
        <mxCell id="rr5zABHRZjq87CbZNu1t-1" value="" style="endArrow=none;html=1;rounded=0;strokeColor=#000000;strokeWidth=5;dashed=1;" edge="1" parent="1">
          <mxGeometry width="50" height="50" relative="1" as="geometry">
            <mxPoint x="200" y="560" as="sourcePoint" />
            <mxPoint x="640" y="600" as="targetPoint" />
          </mxGeometry>
        </mxCell>
        <mxCell id="rr5zABHRZjq87CbZNu1t-3" value="" style="endArrow=none;html=1;rounded=0;strokeColor=#FFFF00;strokeWidth=5;dashed=1;" edge="1" parent="1">
          <mxGeometry width="50" height="50" relative="1" as="geometry">
            <mxPoint x="200" y="600" as="sourcePoint" />
            <mxPoint x="640" y="640" as="targetPoint" />
          </mxGeometry>
        </mxCell>
        <mxCell id="rr5zABHRZjq87CbZNu1t-4" value="" style="endArrow=none;html=1;rounded=0;strokeColor=#FF00FF;strokeWidth=5;dashed=1;" edge="1" parent="1">
          <mxGeometry width="50" height="50" relative="1" as="geometry">
            <mxPoint x="200" y="640" as="sourcePoint" />
            <mxPoint x="640" y="680" as="targetPoint" />
          </mxGeometry>
        </mxCell>
        <mxCell id="rr5zABHRZjq87CbZNu1t-5" value="" style="endArrow=none;html=1;rounded=0;strokeColor=#00FFFF;strokeWidth=5;dashed=1;" edge="1" parent="1">
          <mxGeometry width="50" height="50" relative="1" as="geometry">
            <mxPoint x="200" y="680" as="sourcePoint" />
            <mxPoint x="640" y="720" as="targetPoint" />
          </mxGeometry>
        </mxCell>
        <mxCell id="rr5zABHRZjq87CbZNu1t-6" value="" style="endArrow=none;html=1;rounded=0;strokeColor=#000000;strokeWidth=5;dashed=1;" edge="1" parent="1">
          <mxGeometry width="50" height="50" relative="1" as="geometry">
            <mxPoint x="200" y="720" as="sourcePoint" />
            <mxPoint x="640" y="760" as="targetPoint" />
          </mxGeometry>
        </mxCell>
        <mxCell id="rr5zABHRZjq87CbZNu1t-7" value="" style="endArrow=none;html=1;rounded=0;strokeColor=#FFFF00;strokeWidth=5;dashed=1;" edge="1" parent="1">
          <mxGeometry width="50" height="50" relative="1" as="geometry">
            <mxPoint x="200" y="760" as="sourcePoint" />
            <mxPoint x="640" y="800" as="targetPoint" />
          </mxGeometry>
        </mxCell>
        <mxCell id="rr5zABHRZjq87CbZNu1t-8" value="" style="endArrow=none;html=1;rounded=0;strokeColor=#FF00FF;strokeWidth=5;dashed=1;" edge="1" parent="1">
          <mxGeometry width="50" height="50" relative="1" as="geometry">
            <mxPoint x="200" y="800" as="sourcePoint" />
            <mxPoint x="640" y="840" as="targetPoint" />
          </mxGeometry>
        </mxCell>
        <mxCell id="rr5zABHRZjq87CbZNu1t-9" value="" style="endArrow=none;html=1;rounded=0;strokeColor=#00FFFF;strokeWidth=5;dashed=1;" edge="1" parent="1">
          <mxGeometry width="50" height="50" relative="1" as="geometry">
            <mxPoint x="200" y="840" as="sourcePoint" />
            <mxPoint x="640" y="880" as="targetPoint" />
          </mxGeometry>
        </mxCell>
        <mxCell id="rr5zABHRZjq87CbZNu1t-25" value="" style="endArrow=none;dashed=1;html=1;rounded=0;strokeWidth=3;curved=0;strokeColor=#00FFFF;" edge="1" parent="1">
          <mxGeometry width="50" height="50" relative="1" as="geometry">
            <mxPoint x="120" y="1040" as="sourcePoint" />
            <mxPoint x="200" y="1120" as="targetPoint" />
          </mxGeometry>
        </mxCell>
        <mxCell id="rr5zABHRZjq87CbZNu1t-26" value="" style="endArrow=none;dashed=1;html=1;rounded=0;strokeWidth=3;curved=0;strokeColor=#FFFF00;" edge="1" parent="1">
          <mxGeometry width="50" height="50" relative="1" as="geometry">
            <mxPoint x="160" y="1040" as="sourcePoint" />
            <mxPoint x="240" y="1120" as="targetPoint" />
          </mxGeometry>
        </mxCell>
        <mxCell id="rr5zABHRZjq87CbZNu1t-27" value="" style="endArrow=none;dashed=1;html=1;rounded=0;strokeWidth=3;curved=0;strokeColor=#FF00FF;" edge="1" parent="1">
          <mxGeometry width="50" height="50" relative="1" as="geometry">
            <mxPoint x="200" y="1040" as="sourcePoint" />
            <mxPoint x="280" y="1120" as="targetPoint" />
          </mxGeometry>
        </mxCell>
        <mxCell id="rr5zABHRZjq87CbZNu1t-37" value="" style="endArrow=none;dashed=1;html=1;rounded=0;strokeWidth=3;curved=0;strokeColor=#00FFFF;" edge="1" parent="1">
          <mxGeometry width="50" height="50" relative="1" as="geometry">
            <mxPoint x="240" y="1040" as="sourcePoint" />
            <mxPoint x="320" y="1120" as="targetPoint" />
          </mxGeometry>
        </mxCell>
        <mxCell id="rr5zABHRZjq87CbZNu1t-38" value="" style="endArrow=none;dashed=1;html=1;rounded=0;strokeWidth=3;curved=0;strokeColor=#FFFF00;" edge="1" parent="1">
          <mxGeometry width="50" height="50" relative="1" as="geometry">
            <mxPoint x="280" y="1040" as="sourcePoint" />
            <mxPoint x="360" y="1120" as="targetPoint" />
          </mxGeometry>
        </mxCell>
        <mxCell id="rr5zABHRZjq87CbZNu1t-39" value="" style="endArrow=none;dashed=1;html=1;rounded=0;strokeWidth=3;curved=0;strokeColor=#FF00FF;" edge="1" parent="1">
          <mxGeometry width="50" height="50" relative="1" as="geometry">
            <mxPoint x="320" y="1040" as="sourcePoint" />
            <mxPoint x="400" y="1120" as="targetPoint" />
          </mxGeometry>
        </mxCell>
        <mxCell id="rr5zABHRZjq87CbZNu1t-40" value="" style="endArrow=none;dashed=1;html=1;rounded=0;strokeWidth=3;curved=0;strokeColor=#00FFFF;" edge="1" parent="1">
          <mxGeometry width="50" height="50" relative="1" as="geometry">
            <mxPoint x="360" y="1040" as="sourcePoint" />
            <mxPoint x="440" y="1120" as="targetPoint" />
          </mxGeometry>
        </mxCell>
        <mxCell id="rr5zABHRZjq87CbZNu1t-41" value="" style="endArrow=none;dashed=1;html=1;rounded=0;strokeWidth=3;curved=0;strokeColor=#FFFF00;" edge="1" parent="1">
          <mxGeometry width="50" height="50" relative="1" as="geometry">
            <mxPoint x="400" y="1040" as="sourcePoint" />
            <mxPoint x="480" y="1120" as="targetPoint" />
          </mxGeometry>
        </mxCell>
        <mxCell id="rr5zABHRZjq87CbZNu1t-42" value="" style="endArrow=none;dashed=1;html=1;rounded=0;strokeWidth=3;curved=0;strokeColor=#FF00FF;" edge="1" parent="1">
          <mxGeometry width="50" height="50" relative="1" as="geometry">
            <mxPoint x="440" y="1040" as="sourcePoint" />
            <mxPoint x="520" y="1120" as="targetPoint" />
          </mxGeometry>
        </mxCell>
        <mxCell id="rr5zABHRZjq87CbZNu1t-43" value="" style="endArrow=none;dashed=1;html=1;rounded=0;strokeWidth=3;curved=0;strokeColor=#00FFFF;" edge="1" parent="1">
          <mxGeometry width="50" height="50" relative="1" as="geometry">
            <mxPoint x="480" y="1040" as="sourcePoint" />
            <mxPoint x="560" y="1120" as="targetPoint" />
          </mxGeometry>
        </mxCell>
        <mxCell id="rr5zABHRZjq87CbZNu1t-44" value="" style="endArrow=none;dashed=1;html=1;rounded=0;strokeWidth=3;curved=0;strokeColor=#FFFF00;" edge="1" parent="1">
          <mxGeometry width="50" height="50" relative="1" as="geometry">
            <mxPoint x="520" y="1040" as="sourcePoint" />
            <mxPoint x="600" y="1120" as="targetPoint" />
          </mxGeometry>
        </mxCell>
        <mxCell id="rr5zABHRZjq87CbZNu1t-45" value="" style="endArrow=none;dashed=1;html=1;rounded=0;strokeWidth=3;curved=0;strokeColor=#FF00FF;" edge="1" parent="1">
          <mxGeometry width="50" height="50" relative="1" as="geometry">
            <mxPoint x="560" y="1040" as="sourcePoint" />
            <mxPoint x="640" y="1120" as="targetPoint" />
          </mxGeometry>
        </mxCell>
        <mxCell id="rr5zABHRZjq87CbZNu1t-94" value="" style="endArrow=none;dashed=1;html=1;rounded=0;strokeWidth=3;curved=0;strokeColor=#00FFFF;" edge="1" parent="1">
          <mxGeometry width="50" height="50" relative="1" as="geometry">
            <mxPoint x="200" y="960" as="sourcePoint" />
            <mxPoint x="280" y="1040" as="targetPoint" />
          </mxGeometry>
        </mxCell>
        <mxCell id="rr5zABHRZjq87CbZNu1t-95" value="" style="endArrow=none;dashed=1;html=1;rounded=0;strokeWidth=3;curved=0;strokeColor=#FFFF00;" edge="1" parent="1">
          <mxGeometry width="50" height="50" relative="1" as="geometry">
            <mxPoint x="240" y="960" as="sourcePoint" />
            <mxPoint x="320" y="1040" as="targetPoint" />
          </mxGeometry>
        </mxCell>
        <mxCell id="rr5zABHRZjq87CbZNu1t-96" value="" style="endArrow=none;dashed=1;html=1;rounded=0;strokeWidth=3;curved=0;strokeColor=#FF00FF;" edge="1" parent="1">
          <mxGeometry width="50" height="50" relative="1" as="geometry">
            <mxPoint x="280" y="960" as="sourcePoint" />
            <mxPoint x="360" y="1040" as="targetPoint" />
          </mxGeometry>
        </mxCell>
        <mxCell id="rr5zABHRZjq87CbZNu1t-97" value="" style="endArrow=none;dashed=1;html=1;rounded=0;strokeWidth=3;curved=0;strokeColor=#00FFFF;" edge="1" parent="1">
          <mxGeometry width="50" height="50" relative="1" as="geometry">
            <mxPoint x="320" y="960" as="sourcePoint" />
            <mxPoint x="400" y="1040" as="targetPoint" />
          </mxGeometry>
        </mxCell>
        <mxCell id="rr5zABHRZjq87CbZNu1t-98" value="" style="endArrow=none;dashed=1;html=1;rounded=0;strokeWidth=3;curved=0;strokeColor=#FFFF00;" edge="1" parent="1">
          <mxGeometry width="50" height="50" relative="1" as="geometry">
            <mxPoint x="360" y="960" as="sourcePoint" />
            <mxPoint x="440" y="1040" as="targetPoint" />
          </mxGeometry>
        </mxCell>
        <mxCell id="rr5zABHRZjq87CbZNu1t-99" value="" style="endArrow=none;dashed=1;html=1;rounded=0;strokeWidth=3;curved=0;strokeColor=#FF00FF;" edge="1" parent="1">
          <mxGeometry width="50" height="50" relative="1" as="geometry">
            <mxPoint x="400" y="960" as="sourcePoint" />
            <mxPoint x="480" y="1040" as="targetPoint" />
          </mxGeometry>
        </mxCell>
        <mxCell id="rr5zABHRZjq87CbZNu1t-100" value="" style="endArrow=none;dashed=1;html=1;rounded=0;strokeWidth=3;curved=0;strokeColor=#00FFFF;" edge="1" parent="1">
          <mxGeometry width="50" height="50" relative="1" as="geometry">
            <mxPoint x="440" y="960" as="sourcePoint" />
            <mxPoint x="520" y="1040" as="targetPoint" />
          </mxGeometry>
        </mxCell>
        <mxCell id="rr5zABHRZjq87CbZNu1t-101" value="" style="endArrow=none;dashed=1;html=1;rounded=0;strokeWidth=3;curved=0;strokeColor=#FFFF00;" edge="1" parent="1">
          <mxGeometry width="50" height="50" relative="1" as="geometry">
            <mxPoint x="480" y="960" as="sourcePoint" />
            <mxPoint x="560" y="1040" as="targetPoint" />
          </mxGeometry>
        </mxCell>
        <mxCell id="rr5zABHRZjq87CbZNu1t-102" value="" style="endArrow=none;dashed=1;html=1;rounded=0;strokeWidth=3;curved=0;strokeColor=#FF00FF;" edge="1" parent="1">
          <mxGeometry width="50" height="50" relative="1" as="geometry">
            <mxPoint x="520" y="960" as="sourcePoint" />
            <mxPoint x="600" y="1040" as="targetPoint" />
          </mxGeometry>
        </mxCell>
        <mxCell id="rr5zABHRZjq87CbZNu1t-103" value="" style="endArrow=none;dashed=1;html=1;rounded=0;strokeWidth=3;curved=0;strokeColor=#00FFFF;" edge="1" parent="1">
          <mxGeometry width="50" height="50" relative="1" as="geometry">
            <mxPoint x="560" y="960" as="sourcePoint" />
            <mxPoint x="640" y="1040" as="targetPoint" />
          </mxGeometry>
        </mxCell>
        <mxCell id="rr5zABHRZjq87CbZNu1t-104" value="" style="endArrow=none;dashed=1;html=1;rounded=0;strokeWidth=3;curved=0;strokeColor=#FFFF00;" edge="1" parent="1">
          <mxGeometry width="50" height="50" relative="1" as="geometry">
            <mxPoint x="600" y="960" as="sourcePoint" />
            <mxPoint x="680" y="1040" as="targetPoint" />
          </mxGeometry>
        </mxCell>
        <mxCell id="rr5zABHRZjq87CbZNu1t-105" value="" style="endArrow=none;dashed=1;html=1;rounded=0;strokeWidth=3;curved=0;strokeColor=#FF00FF;" edge="1" parent="1">
          <mxGeometry width="50" height="50" relative="1" as="geometry">
            <mxPoint x="640" y="960" as="sourcePoint" />
            <mxPoint x="720" y="1040" as="targetPoint" />
          </mxGeometry>
        </mxCell>
        <mxCell id="rr5zABHRZjq87CbZNu1t-106" value="" style="endArrow=none;dashed=1;html=1;rounded=0;strokeWidth=3;curved=0;strokeColor=#00FFFF;" edge="1" parent="1">
          <mxGeometry width="50" height="50" relative="1" as="geometry">
            <mxPoint x="200" y="1120" as="sourcePoint" />
            <mxPoint x="280" y="1040" as="targetPoint" />
          </mxGeometry>
        </mxCell>
        <mxCell id="rr5zABHRZjq87CbZNu1t-107" value="" style="endArrow=none;dashed=1;html=1;rounded=0;strokeWidth=3;curved=0;strokeColor=#FFFF00;" edge="1" parent="1">
          <mxGeometry width="50" height="50" relative="1" as="geometry">
            <mxPoint x="240" y="1120" as="sourcePoint" />
            <mxPoint x="320" y="1040" as="targetPoint" />
          </mxGeometry>
        </mxCell>
        <mxCell id="rr5zABHRZjq87CbZNu1t-108" value="" style="endArrow=none;dashed=1;html=1;rounded=0;strokeWidth=3;curved=0;strokeColor=#FF00FF;" edge="1" parent="1">
          <mxGeometry width="50" height="50" relative="1" as="geometry">
            <mxPoint x="280" y="1120" as="sourcePoint" />
            <mxPoint x="360" y="1040" as="targetPoint" />
          </mxGeometry>
        </mxCell>
        <mxCell id="rr5zABHRZjq87CbZNu1t-109" value="" style="endArrow=none;dashed=1;html=1;rounded=0;strokeWidth=3;curved=0;strokeColor=#00FFFF;" edge="1" parent="1">
          <mxGeometry width="50" height="50" relative="1" as="geometry">
            <mxPoint x="320" y="1120" as="sourcePoint" />
            <mxPoint x="400" y="1040" as="targetPoint" />
          </mxGeometry>
        </mxCell>
        <mxCell id="rr5zABHRZjq87CbZNu1t-110" value="" style="endArrow=none;dashed=1;html=1;rounded=0;strokeWidth=3;curved=0;strokeColor=#FFFF00;" edge="1" parent="1">
          <mxGeometry width="50" height="50" relative="1" as="geometry">
            <mxPoint x="360" y="1120" as="sourcePoint" />
            <mxPoint x="440" y="1040" as="targetPoint" />
          </mxGeometry>
        </mxCell>
        <mxCell id="rr5zABHRZjq87CbZNu1t-111" value="" style="endArrow=none;dashed=1;html=1;rounded=0;strokeWidth=3;curved=0;strokeColor=#FF00FF;" edge="1" parent="1">
          <mxGeometry width="50" height="50" relative="1" as="geometry">
            <mxPoint x="400" y="1120" as="sourcePoint" />
            <mxPoint x="480" y="1040" as="targetPoint" />
          </mxGeometry>
        </mxCell>
        <mxCell id="rr5zABHRZjq87CbZNu1t-112" value="" style="endArrow=none;dashed=1;html=1;rounded=0;strokeWidth=3;curved=0;strokeColor=#00FFFF;" edge="1" parent="1">
          <mxGeometry width="50" height="50" relative="1" as="geometry">
            <mxPoint x="440" y="1120" as="sourcePoint" />
            <mxPoint x="520" y="1040" as="targetPoint" />
          </mxGeometry>
        </mxCell>
        <mxCell id="rr5zABHRZjq87CbZNu1t-113" value="" style="endArrow=none;dashed=1;html=1;rounded=0;strokeWidth=3;curved=0;strokeColor=#FFFF00;" edge="1" parent="1">
          <mxGeometry width="50" height="50" relative="1" as="geometry">
            <mxPoint x="480" y="1120" as="sourcePoint" />
            <mxPoint x="560" y="1040" as="targetPoint" />
          </mxGeometry>
        </mxCell>
        <mxCell id="rr5zABHRZjq87CbZNu1t-114" value="" style="endArrow=none;dashed=1;html=1;rounded=0;strokeWidth=3;curved=0;strokeColor=#FF00FF;" edge="1" parent="1">
          <mxGeometry width="50" height="50" relative="1" as="geometry">
            <mxPoint x="520" y="1120" as="sourcePoint" />
            <mxPoint x="600" y="1040" as="targetPoint" />
          </mxGeometry>
        </mxCell>
        <mxCell id="rr5zABHRZjq87CbZNu1t-115" value="" style="endArrow=none;dashed=1;html=1;rounded=0;strokeWidth=3;curved=0;strokeColor=#00FFFF;" edge="1" parent="1">
          <mxGeometry width="50" height="50" relative="1" as="geometry">
            <mxPoint x="560" y="1120" as="sourcePoint" />
            <mxPoint x="640" y="1040" as="targetPoint" />
          </mxGeometry>
        </mxCell>
        <mxCell id="rr5zABHRZjq87CbZNu1t-116" value="" style="endArrow=none;dashed=1;html=1;rounded=0;strokeWidth=3;curved=0;strokeColor=#FFFF00;" edge="1" parent="1">
          <mxGeometry width="50" height="50" relative="1" as="geometry">
            <mxPoint x="600" y="1120" as="sourcePoint" />
            <mxPoint x="680" y="1040" as="targetPoint" />
          </mxGeometry>
        </mxCell>
        <mxCell id="rr5zABHRZjq87CbZNu1t-117" value="" style="endArrow=none;dashed=1;html=1;rounded=0;strokeWidth=3;curved=0;strokeColor=#FF00FF;" edge="1" parent="1">
          <mxGeometry width="50" height="50" relative="1" as="geometry">
            <mxPoint x="640" y="1120" as="sourcePoint" />
            <mxPoint x="720" y="1040" as="targetPoint" />
          </mxGeometry>
        </mxCell>
      </root>
    </mxGraphModel>
  </diagram>
</mxfile>
